<svg width="158" height="27" viewBox="0 0 158 27" fill="none" xmlns="http://www.w3.org/2000/svg">
<path d="M27.0723 25.664H17.0243V24.512L20.0323 22.144V13.952H7.74432V23.104L11.1363 24.224L10.4323 25.664H0.38432V24.512L3.39232 22.144V3.07204L0.000320435 1.98404L0.73632 0.544044H10.7843V1.69604L7.74432 4.09604V12.352H20.0323V3.07204L16.6403 1.98404L17.3763 0.544044H27.4243V1.69604L24.3843 4.09604V23.136L27.7763 24.224L27.0723 25.664ZM41.2151 8.32004C42.6657 8.32004 43.9564 8.69338 45.0871 9.44004C46.2391 10.1654 47.1351 11.1574 47.7751 12.416C48.4151 13.6747 48.7351 15.072 48.7351 16.608C48.7351 18.272 48.2231 19.8294 47.1991 21.28C46.1964 22.7094 44.9271 23.8614 43.3911 24.736C41.8551 25.5894 40.3724 26.016 38.9431 26.016C37.5137 26.016 36.2231 25.6534 35.0711 24.928C33.9404 24.1814 33.0444 23.1787 32.3831 21.92C31.7431 20.6614 31.4231 19.264 31.4231 17.728C31.4231 16.064 31.9244 14.5174 32.9271 13.088C33.9511 11.6374 35.2311 10.4854 36.7671 9.63204C38.3031 8.75738 39.7857 8.32004 41.2151 8.32004ZM39.3591 11.232C37.0551 11.232 35.9031 12.8854 35.9031 16.192C35.9031 18.176 36.3191 19.8294 37.1511 21.152C38.0044 22.4747 39.2204 23.136 40.7991 23.136C41.9297 23.136 42.7831 22.7094 43.3591 21.856C43.9351 21.0027 44.2231 19.7547 44.2231 18.112C44.2231 16.1494 43.7964 14.5174 42.9431 13.216C42.1111 11.8934 40.9164 11.232 39.3591 11.232ZM82.7761 25.696H76.4401V14.944C76.4401 13.8347 76.2587 13.056 75.8961 12.608C75.5547 12.16 74.9467 11.936 74.0721 11.936C73.4534 11.936 72.8347 12.0534 72.2161 12.288C71.5974 12.5227 70.8827 12.9707 70.0721 13.632V23.2L72.9201 24.256L72.2161 25.696H65.9121V14.944C65.9121 13.8347 65.7307 13.056 65.3681 12.608C65.0267 12.16 64.4187 11.936 63.5441 11.936C62.9254 11.936 62.3067 12.0534 61.6881 12.288C61.0694 12.5227 60.3654 12.9707 59.5761 13.632V23.232L62.3921 24.288L61.6881 25.728H52.5681V24.576L55.4161 22.304V13.6L52.5681 11.904V10.752L58.2641 8.03204L59.3521 12.064L63.5121 8.57604C64.0027 8.40538 64.5894 8.32004 65.2721 8.32004C66.5094 8.32004 67.5334 8.65071 68.3441 9.31204C69.1761 9.95204 69.7094 10.848 69.9441 12L74.0401 8.57604C74.5307 8.40538 75.1174 8.32004 75.8001 8.32004C77.2721 8.32004 78.4347 8.76804 79.2881 9.66404C80.1627 10.5387 80.6001 11.7334 80.6001 13.248V23.2L83.4801 24.256L82.7761 25.696ZM97.2086 25.728C96.2912 25.92 95.1819 26.016 93.8806 26.016C92.4512 26.016 91.1606 25.6534 90.0086 24.928C88.8779 24.1814 87.9819 23.1787 87.3206 21.92C86.6806 20.6614 86.3606 19.264 86.3606 17.728C86.3606 16.064 86.8619 14.5174 87.8646 13.088C88.8886 11.6374 90.1686 10.4854 91.7046 9.63204C93.2406 8.75738 94.7232 8.32004 96.1526 8.32004C98.2219 8.32004 99.8219 9.13071 100.953 10.752C102.105 12.3734 102.67 14.5387 102.649 17.248H90.8726C91.0219 18.9547 91.5126 20.352 92.3446 21.44C93.1766 22.5067 94.3072 23.04 95.7366 23.04C97.1446 23.04 99.1499 22.0374 101.753 20.032L102.713 21.344L97.2086 25.728ZM94.3286 11.232C92.1312 11.232 90.9792 12.7467 90.8726 15.776H98.0726C97.8806 14.688 97.6779 13.8454 97.4646 13.248C97.2726 12.6507 96.9312 12.1707 96.4406 11.808C95.9499 11.424 95.2352 11.232 94.2966 11.232H94.3286ZM127.687 7.52004L126.567 7.90404L122.695 2.20804H114.119V12.064H118.887L121.223 8.06404H122.375V16.96L120.935 17.664L118.983 13.696H114.119V22.944L119.207 24.288L118.471 25.728H106.759V24.576L109.767 22.208V3.10404L106.375 1.98404L107.111 0.544044H125.831L127.687 4.3869e-05V7.52004ZM154.548 4.06404V15.776C154.548 18.016 154.004 19.936 152.916 21.536C151.828 23.136 150.484 24.3414 148.884 25.152C147.284 25.9414 145.726 26.336 144.212 26.336C142.27 26.336 140.532 25.92 138.996 25.088C137.481 24.2347 136.297 23.072 135.444 21.6C134.59 20.1067 134.164 18.432 134.164 16.576V3.07204L130.804 1.98404L131.508 0.544044H141.556V1.69604L138.516 4.06404V15.104C138.516 17.728 139.166 19.776 140.468 21.248C141.769 22.72 143.742 23.456 146.388 23.456C147.369 23.456 148.329 23.1467 149.268 22.528C150.228 21.888 151.017 20.96 151.636 19.744C152.254 18.528 152.564 17.088 152.564 15.424V3.58404L149.172 1.98404L149.876 0.544044H157.588V1.69604L154.548 4.06404Z" fill="white"/>
</svg>
