<svg width="24" height="20" viewBox="0 0 24 20" fill="none" xmlns="http://www.w3.org/2000/svg">
<path d="M11.5308 18.5544C12.6353 18.5544 13.5308 17.6577 13.5308 16.5516C13.5308 15.4455 12.6353 14.5488 11.5308 14.5488C10.4262 14.5488 9.53076 15.4455 9.53076 16.5516C9.53076 17.6577 10.4262 18.5544 11.5308 18.5544Z" stroke="#211E1A" stroke-width="1.5" stroke-miterlimit="10"/>
<path d="M6.8208 11.6044C7.43926 10.9849 8.17354 10.4935 8.98169 10.1582C9.78984 9.82296 10.656 9.65039 11.5308 9.65039C12.4056 9.65039 13.2718 9.82296 14.0799 10.1582C14.8881 10.4935 15.6223 10.9849 16.2408 11.6044" stroke="#211E1A" stroke-width="1.5" stroke-miterlimit="10"/>
<path d="M3.6709 8.45962C5.75606 6.37318 8.58317 5.20117 11.5309 5.20117C14.4786 5.20117 17.3057 6.37318 19.3909 8.45962" stroke="#211E1A" stroke-width="1.5" stroke-miterlimit="10"/>
<path d="M0.530762 5.31528C1.97488 3.86799 3.68966 2.71986 5.5771 1.93653C7.46454 1.15319 9.48764 0.75 11.5308 0.75C13.5739 0.75 15.597 1.15319 17.4844 1.93653C19.3719 2.71986 21.0866 3.86799 22.5308 5.31528" stroke="#211E1A" stroke-width="1.5" stroke-miterlimit="10"/>
</svg>
